# xmcd CD database file
#
# Track frame offsets:
#	182
#	17657
#	30720
#	47022
#	62612
#	76547
#	94025
#	110652
#	125340
#	139922
#	153607
#
# Disc length: 2226 seconds
#
# Revision: 3
# Processed by: cddbd v1.5.2PL0 Copyright (c) Steve Scherf et al.
# Submitted via: CDex 1.51
#
DISCID=8608b00b
DTITLE=Sara Evans - No Place That Far
DYEAR=1998
DGENRE=Country
TTITLE0=The Great Unknown
TTITLE1=Cryin' Game
TTITLE2=No Place That Far
TTITLE3=I Thought I'd See Your Face Again
TTITLE4=Fool, I'm A Woman
TTITLE5=Time Won't Tell
TTITLE6=The Knot Comes Untied
TTITLE7=Love, Don't Be A Stranger
TTITLE8=These Days
TTITLE9=Cupid
TTITLE10=There's Only One
EXTD=YEAR: 1998
EXTT0=
EXTT1=
EXTT2=
EXTT3=
EXTT4=
EXTT5=
EXTT6=
EXTT7=
EXTT8=
EXTT9=
EXTT10=
PLAYORDER=
